<svg width="250" height="171" viewBox="0 0 250 171" fill="none" xmlns="http://www.w3.org/2000/svg">
<path d="M31.4654 165.139C33.9184 168.792 37.3637 170.863 40.9691 170.858L91.9603 170.762C95.9844 170.754 99.9507 169.452 103.538 166.96L217.192 88.122C227.637 80.8763 237.001 70.5336 243.371 56.9873C250.524 41.7803 251.301 30.7755 248.477 23.0012C245.661 15.2215 238.813 9.5082 225.723 8.34419C214.063 7.30832 202.466 11.5052 192.021 18.7456L153.541 45.4379L68.1131 1.62172C67.086 0.67587 65.8926 0.12222 64.6565 0.0180217C63.4204 -0.0861769 62.1863 0.262857 61.082 1.02904L35.3989 18.847C31.231 21.7357 30.2232 29.3392 33.3794 34.0807L94.4016 86.4614L54.086 114.43L25.8248 94.9566C24.8512 94.2856 23.7757 93.9369 22.6853 93.9388C21.5949 93.9406 20.5201 94.293 19.5476 94.9673L3.87213 105.844C-0.205917 108.674 -1.28012 116.053 1.69639 120.837L31.4654 165.139Z" fill="#41A4FF"/>
</svg>
